<mxfile host="app.diagrams.net" modified="2023-01-18T03:45:13.701Z" agent="5.0 (Windows NT 10.0; Win64; x64) AppleWebKit/537.36 (KHTML, like Gecko) Chrome/109.0.0.0 Safari/537.36" etag="ZS0xY3t7pUyf2Vn2iRc0" version="20.8.5" type="github">
  <diagram id="C5RBs43oDa-KdzZeNtuy" name="Page-1">
    <mxGraphModel dx="910" dy="512" grid="1" gridSize="10" guides="1" tooltips="1" connect="1" arrows="1" fold="1" page="1" pageScale="1" pageWidth="827" pageHeight="1169" math="0" shadow="0">
      <root>
        <mxCell id="WIyWlLk6GJQsqaUBKTNV-0" />
        <mxCell id="WIyWlLk6GJQsqaUBKTNV-1" parent="WIyWlLk6GJQsqaUBKTNV-0" />
        <mxCell id="hn7cNbfDd--p1zAdIMlJ-2" value="" style="edgeStyle=orthogonalEdgeStyle;rounded=0;orthogonalLoop=1;jettySize=auto;html=1;" edge="1" parent="WIyWlLk6GJQsqaUBKTNV-1" source="hn7cNbfDd--p1zAdIMlJ-0" target="hn7cNbfDd--p1zAdIMlJ-1">
          <mxGeometry relative="1" as="geometry" />
        </mxCell>
        <mxCell id="hn7cNbfDd--p1zAdIMlJ-0" value="Mulai" style="rounded=1;whiteSpace=wrap;html=1;fontSize=12;glass=0;strokeWidth=1;shadow=0;arcSize=50;" vertex="1" parent="WIyWlLk6GJQsqaUBKTNV-1">
          <mxGeometry x="180" y="100" width="120" height="40" as="geometry" />
        </mxCell>
        <mxCell id="hn7cNbfDd--p1zAdIMlJ-4" value="" style="edgeStyle=orthogonalEdgeStyle;rounded=0;orthogonalLoop=1;jettySize=auto;html=1;" edge="1" parent="WIyWlLk6GJQsqaUBKTNV-1" source="hn7cNbfDd--p1zAdIMlJ-1" target="hn7cNbfDd--p1zAdIMlJ-3">
          <mxGeometry relative="1" as="geometry" />
        </mxCell>
        <mxCell id="hn7cNbfDd--p1zAdIMlJ-1" value="Masuk Ke halaman beranda" style="rounded=0;whiteSpace=wrap;html=1;" vertex="1" parent="WIyWlLk6GJQsqaUBKTNV-1">
          <mxGeometry x="180" y="190" width="120" height="60" as="geometry" />
        </mxCell>
        <mxCell id="hn7cNbfDd--p1zAdIMlJ-13" value="" style="edgeStyle=orthogonalEdgeStyle;rounded=0;orthogonalLoop=1;jettySize=auto;html=1;" edge="1" parent="WIyWlLk6GJQsqaUBKTNV-1" target="hn7cNbfDd--p1zAdIMlJ-12">
          <mxGeometry relative="1" as="geometry">
            <mxPoint x="240" y="340" as="sourcePoint" />
          </mxGeometry>
        </mxCell>
        <mxCell id="hn7cNbfDd--p1zAdIMlJ-3" value="Mencari Kamar" style="whiteSpace=wrap;html=1;rounded=0;" vertex="1" parent="WIyWlLk6GJQsqaUBKTNV-1">
          <mxGeometry x="180" y="330" width="120" height="60" as="geometry" />
        </mxCell>
        <mxCell id="hn7cNbfDd--p1zAdIMlJ-5" value="Melihat informasi tipe kamar dan fasilitas kamar" style="whiteSpace=wrap;html=1;rounded=0;" vertex="1" parent="WIyWlLk6GJQsqaUBKTNV-1">
          <mxGeometry x="180" y="535" width="120" height="60" as="geometry" />
        </mxCell>
        <mxCell id="hn7cNbfDd--p1zAdIMlJ-7" value="" style="edgeStyle=orthogonalEdgeStyle;rounded=0;orthogonalLoop=1;jettySize=auto;html=1;" edge="1" parent="WIyWlLk6GJQsqaUBKTNV-1" target="hn7cNbfDd--p1zAdIMlJ-8">
          <mxGeometry relative="1" as="geometry">
            <mxPoint x="240" y="595" as="sourcePoint" />
          </mxGeometry>
        </mxCell>
        <mxCell id="hn7cNbfDd--p1zAdIMlJ-10" value="" style="edgeStyle=orthogonalEdgeStyle;rounded=0;orthogonalLoop=1;jettySize=auto;html=1;" edge="1" parent="WIyWlLk6GJQsqaUBKTNV-1" source="hn7cNbfDd--p1zAdIMlJ-8">
          <mxGeometry relative="1" as="geometry">
            <mxPoint x="240" y="765" as="targetPoint" />
          </mxGeometry>
        </mxCell>
        <mxCell id="hn7cNbfDd--p1zAdIMlJ-8" value="Pesan Kamar" style="whiteSpace=wrap;html=1;rounded=0;" vertex="1" parent="WIyWlLk6GJQsqaUBKTNV-1">
          <mxGeometry x="180" y="650" width="120" height="60" as="geometry" />
        </mxCell>
        <mxCell id="hn7cNbfDd--p1zAdIMlJ-11" value="Memasukkan nama, Jumlah kamar," style="shape=parallelogram;perimeter=parallelogramPerimeter;whiteSpace=wrap;html=1;fixedSize=1;" vertex="1" parent="WIyWlLk6GJQsqaUBKTNV-1">
          <mxGeometry x="180" y="770" width="120" height="60" as="geometry" />
        </mxCell>
        <mxCell id="hn7cNbfDd--p1zAdIMlJ-14" value="" style="edgeStyle=orthogonalEdgeStyle;rounded=0;orthogonalLoop=1;jettySize=auto;html=1;" edge="1" parent="WIyWlLk6GJQsqaUBKTNV-1" source="hn7cNbfDd--p1zAdIMlJ-12" target="hn7cNbfDd--p1zAdIMlJ-5">
          <mxGeometry relative="1" as="geometry" />
        </mxCell>
        <mxCell id="hn7cNbfDd--p1zAdIMlJ-12" value="Memilih Kamar" style="whiteSpace=wrap;html=1;rounded=0;" vertex="1" parent="WIyWlLk6GJQsqaUBKTNV-1">
          <mxGeometry x="180" y="420" width="120" height="60" as="geometry" />
        </mxCell>
      </root>
    </mxGraphModel>
  </diagram>
</mxfile>
